<?xml version="1.0" encoding="utf-8"?>
<!-- Svg Vector Icons : http://www.onlinewebfonts.com/icon -->
<!DOCTYPE svg PUBLIC "-//W3C//DTD SVG 1.1//EN" "http://www.w3.org/Graphics/SVG/1.1/DTD/svg11.dtd">
<svg version="1.1" xmlns="http://www.w3.org/2000/svg" xmlns:xlink="http://www.w3.org/1999/xlink" x="0px" y="0px" viewBox="0 0 256 256" enable-background="new 0 0 256 256" xml:space="preserve">
<metadata> Svg Vector Icons : http://www.onlinewebfonts.com/icon </metadata>
<g><g><g><path fill="#000000" d="M67.8,23.6c-15.1,2.1-28.8,9.1-39.2,20C22.8,49.7,19.5,54.5,16,62c-10.1,21.7-7.2,48.4,7.3,67.6c1.9,2.4,25.6,26.6,52.9,53.9c46.6,46.4,49.6,49.4,51.9,49.4c2.2,0,5.3-3,51.9-49.5c27.2-27.2,51-51.4,52.9-53.8c9.3-12.3,14-27.7,13.1-43.5c-1.6-29.7-22-54-51.3-61.3c-8.8-2.1-22.3-2-31.1,0.3c-12.1,3.2-20.8,8.1-30,16.8l-5.6,5.4l-4.8-4.8c-8-7.8-14.2-11.7-23.5-15.3C90.3,23.8,77.2,22.2,67.8,23.6z M89.9,36.3c12.7,3.3,24,11.1,31.9,22.1c4.4,6.2,7.9,6.5,11.7,0.9c3.2-4.6,9.7-11.3,14.4-14.6c20.9-15,50.2-13,69,4.6c16.1,15,21.7,37.4,14.6,58.3c-1.9,5.7-4.8,10.9-8.7,16c-1.5,2-23.5,24.4-48.8,49.6l-46,46l-47.9-48c-43-43.1-48.2-48.5-51-53.3c-5.7-9.9-8.3-20.4-7.6-31.5c0.5-7.8,1.7-12.9,4.9-19.7C34.2,49.8,50.3,37.8,68.7,35C74.2,34.2,84,34.7,89.9,36.3z"/></g></g></g>
</svg>